<?xml version="1.0" encoding="UTF-8"?>
<svg xmlns="http://www.w3.org/2000/svg" style="background: #ffffff; background-color: light-dark(#ffffff, #121212); color-scheme: light dark;" version="1.1" width="1781px" height="912px" viewBox="0 0 1781 912"><g><g/><g transform="translate(-16,21) scale(1)"><g style="visibility: visible;"><path d="M 37 0 L 1067 0 L 1087 20 L 1087 850 L 57 850 L 37 830 L 37 0 Z" fill="none" stroke="white" stroke-width="10" stroke-miterlimit="10" pointer-events="stroke" style="stroke: light-dark(rgb(0, 0, 0), rgb(237, 237, 237));" visibility="hidden" vector-effect="non-scaling-stroke"/><path d="M 37 0 L 1067 0 L 1087 20 L 1087 850 L 57 850 L 37 830 L 37 0 Z" fill="none" stroke="#000000" stroke-width="2" stroke-miterlimit="10" pointer-events="all" style="stroke: light-dark(rgb(0, 0, 0), rgb(237, 237, 237));"/><path d="M 37 0 L 1067 0 L 1087 20 L 57 20 Z" fill-opacity="0.05" fill="#000000" stroke="none" pointer-events="all" style="fill: light-dark(rgb(0, 0, 0), rgb(237, 237, 237));"/><path d="M 37 0 L 57 20 L 57 850 L 37 830 Z" fill-opacity="0.1" fill="#000000" stroke="none" pointer-events="all" style="fill: light-dark(rgb(0, 0, 0), rgb(237, 237, 237));"/><path d="M 57 850 L 57 20 L 37 0 M 57 20 L 1087 20" fill="none" stroke="white" stroke-width="10" stroke-miterlimit="10" pointer-events="stroke" style="stroke: light-dark(rgb(0, 0, 0), rgb(237, 237, 237));" visibility="hidden" vector-effect="non-scaling-stroke"/><path d="M 57 850 L 57 20 L 37 0 M 57 20 L 1087 20" fill="none" stroke="#000000" stroke-width="2" stroke-miterlimit="10" pointer-events="all" style="stroke: light-dark(rgb(0, 0, 0), rgb(237, 237, 237));"/></g><g style=""><g><foreignObject style="overflow: visible; text-align: left;" pointer-events="none" x="-9916" y="-9958" width="21001" height="20811"><div xmlns="http://www.w3.org/1999/xhtml" style="display: flex; align-items: unsafe flex-start; justify-content: unsafe flex-start; width: 1003px; height: 1px; padding-top: 10000px; margin-left: 10000px;"><div style="box-sizing: border-box; font-size: 0; text-align: left; color: #000000; "><div style="display: inline-block; font-size: 18px; font-family: Helvetica; color: light-dark(#000000, #ededed); line-height: 1.2; pointer-events: all; font-weight: bold; white-space: normal; word-wrap: normal; "><font style="font-size: 20px;">«device»<br /><b style="">Simulation Host Machine</b><br />Ubuntu 22.04 LTS</font></div></div></div></foreignObject></g></g><g style="visibility: visible;"><path d="M 90 129 L 1050 129 L 1050 640 L 90 640 L 90 169 L 80 169 L 80 159 L 90 159 L 90 149 L 80 149 L 80 139 L 90 139 Z" fill="none" stroke="white" stroke-width="9.5" stroke-miterlimit="10" pointer-events="stroke" style="stroke: light-dark(rgb(0, 0, 0), rgb(237, 237, 237));" visibility="hidden" vector-effect="non-scaling-stroke"/><path d="M 90 129 L 1050 129 L 1050 640 L 90 640 L 90 169 L 80 169 L 80 159 L 90 159 L 90 149 L 80 149 L 80 139 L 90 139 Z" fill="none" stroke="#000000" stroke-width="1.5" stroke-miterlimit="10" pointer-events="all" style="stroke: light-dark(rgb(0, 0, 0), rgb(237, 237, 237));"/><path d="M 90 139 L 100 139 L 100 149 L 90 149 M 90 159 L 100 159 L 100 169 L 90 169" fill="none" stroke="white" stroke-width="9.5" stroke-miterlimit="10" pointer-events="stroke" style="stroke: light-dark(rgb(0, 0, 0), rgb(237, 237, 237));" visibility="hidden" vector-effect="non-scaling-stroke"/><path d="M 90 139 L 100 139 L 100 149 L 90 149 M 90 159 L 100 159 L 100 169 L 90 169" fill="none" stroke="#000000" stroke-width="1.5" stroke-miterlimit="10" pointer-events="all" style="stroke: light-dark(rgb(0, 0, 0), rgb(237, 237, 237));"/></g><g style=""><g><foreignObject style="overflow: visible; text-align: left;" pointer-events="none" x="-9883" y="-9854" width="20931" height="20497"><div xmlns="http://www.w3.org/1999/xhtml" style="display: flex; align-items: unsafe flex-start; justify-content: unsafe flex-start; width: 933px; height: 1px; padding-top: 10000px; margin-left: 10000px;"><div style="box-sizing: border-box; font-size: 0; text-align: left; color: #000000; "><div style="display: inline-block; font-size: 18px; font-family: Helvetica; color: light-dark(#000000, #ededed); line-height: 1.2; pointer-events: all; font-weight: bold; white-space: normal; word-wrap: normal; "><font>«executionEnvironment»<br /><b>Docker Container</b><br />ROS 2 Humble</font></div></div></div></foreignObject></g></g><g style="visibility: visible;"><path d="M 126 260 L 320 260 L 320 330 L 126 330 L 126 315 L 110 315 L 110 303 L 126 303 L 126 287 L 110 287 L 110 275 L 126 275 Z" fill="none" stroke="white" stroke-width="9.5" stroke-miterlimit="10" pointer-events="stroke" style="stroke: light-dark(rgb(0, 0, 0), rgb(237, 237, 237));" visibility="hidden" vector-effect="non-scaling-stroke"/><path d="M 126 260 L 320 260 L 320 330 L 126 330 L 126 315 L 110 315 L 110 303 L 126 303 L 126 287 L 110 287 L 110 275 L 126 275 Z" fill="none" stroke="#000000" stroke-width="1.5" stroke-miterlimit="10" pointer-events="all" style="stroke: light-dark(rgb(0, 0, 0), rgb(237, 237, 237));"/><path d="M 126 275 L 142 275 L 142 287 L 126 287 M 126 303 L 142 303 L 142 315 L 126 315" fill="none" stroke="white" stroke-width="9.5" stroke-miterlimit="10" pointer-events="stroke" style="stroke: light-dark(rgb(0, 0, 0), rgb(237, 237, 237));" visibility="hidden" vector-effect="non-scaling-stroke"/><path d="M 126 275 L 142 275 L 142 287 L 126 287 M 126 303 L 142 303 L 142 315 L 126 315" fill="none" stroke="#000000" stroke-width="1.5" stroke-miterlimit="10" pointer-events="all" style="stroke: light-dark(rgb(0, 0, 0), rgb(237, 237, 237));"/></g><g style=""><g><foreignObject style="overflow: visible; text-align: left;" pointer-events="none" x="-9852" y="-9705" width="20170" height="20066"><div xmlns="http://www.w3.org/1999/xhtml" style="display: flex; align-items: unsafe center; justify-content: unsafe flex-start; width: 1px; height: 1px; padding-top: 10000px; margin-left: 10000px;"><div style="box-sizing: border-box; font-size: 0; text-align: left; color: #000000; "><div style="display: inline-block; font-size: 18px; font-family: Helvetica; color: light-dark(#000000, #ededed); line-height: 1.2; pointer-events: all; white-space: nowrap; "><font>«artifact»<br />Gazebo Harmonic</font></div></div></div></foreignObject></g></g><g style="visibility: visible;"><path d="M 356 260 L 540 260 L 540 330 L 356 330 L 356 315 L 340 315 L 340 303 L 356 303 L 356 287 L 340 287 L 340 275 L 356 275 Z" fill="none" stroke="white" stroke-width="9.5" stroke-miterlimit="10" pointer-events="stroke" style="stroke: light-dark(rgb(0, 0, 0), rgb(237, 237, 237));" visibility="hidden" vector-effect="non-scaling-stroke"/><path d="M 356 260 L 540 260 L 540 330 L 356 330 L 356 315 L 340 315 L 340 303 L 356 303 L 356 287 L 340 287 L 340 275 L 356 275 Z" fill="none" stroke="#000000" stroke-width="1.5" stroke-miterlimit="10" pointer-events="all" style="stroke: light-dark(rgb(0, 0, 0), rgb(237, 237, 237));"/><path d="M 356 275 L 372 275 L 372 287 L 356 287 M 356 303 L 372 303 L 372 315 L 356 315" fill="none" stroke="white" stroke-width="9.5" stroke-miterlimit="10" pointer-events="stroke" style="stroke: light-dark(rgb(0, 0, 0), rgb(237, 237, 237));" visibility="hidden" vector-effect="non-scaling-stroke"/><path d="M 356 275 L 372 275 L 372 287 L 356 287 M 356 303 L 372 303 L 372 315 L 356 315" fill="none" stroke="#000000" stroke-width="1.5" stroke-miterlimit="10" pointer-events="all" style="stroke: light-dark(rgb(0, 0, 0), rgb(237, 237, 237));"/></g><g style=""><g><foreignObject style="overflow: visible; text-align: left;" pointer-events="none" x="-9622" y="-9705" width="20160" height="20066"><div xmlns="http://www.w3.org/1999/xhtml" style="display: flex; align-items: unsafe center; justify-content: unsafe flex-start; width: 1px; height: 1px; padding-top: 10000px; margin-left: 10000px;"><div style="box-sizing: border-box; font-size: 0; text-align: left; color: #000000; "><div style="display: inline-block; font-size: 18px; font-family: Helvetica; color: light-dark(#000000, #ededed); line-height: 1.2; pointer-events: all; white-space: nowrap; "><font>«artifact»<br />PX4 SITL (x4)</font></div></div></div></foreignObject></g></g><g style="visibility: visible;"><path d="M 586 260 L 780 260 L 780 330 L 586 330 L 586 315 L 570 315 L 570 303 L 586 303 L 586 287 L 570 287 L 570 275 L 586 275 Z" fill="none" stroke="white" stroke-width="9.5" stroke-miterlimit="10" pointer-events="stroke" style="stroke: light-dark(rgb(0, 0, 0), rgb(237, 237, 237));" visibility="hidden" vector-effect="non-scaling-stroke"/><path d="M 586 260 L 780 260 L 780 330 L 586 330 L 586 315 L 570 315 L 570 303 L 586 303 L 586 287 L 570 287 L 570 275 L 586 275 Z" fill="none" stroke="#000000" stroke-width="1.5" stroke-miterlimit="10" pointer-events="all" style="stroke: light-dark(rgb(0, 0, 0), rgb(237, 237, 237));"/><path d="M 586 275 L 602 275 L 602 287 L 586 287 M 586 303 L 602 303 L 602 315 L 586 315" fill="none" stroke="white" stroke-width="9.5" stroke-miterlimit="10" pointer-events="stroke" style="stroke: light-dark(rgb(0, 0, 0), rgb(237, 237, 237));" visibility="hidden" vector-effect="non-scaling-stroke"/><path d="M 586 275 L 602 275 L 602 287 L 586 287 M 586 303 L 602 303 L 602 315 L 586 315" fill="none" stroke="#000000" stroke-width="1.5" stroke-miterlimit="10" pointer-events="all" style="stroke: light-dark(rgb(0, 0, 0), rgb(237, 237, 237));"/></g><g style=""><g><foreignObject style="overflow: visible; text-align: left;" pointer-events="none" x="-9392" y="-9705" width="20170" height="20066"><div xmlns="http://www.w3.org/1999/xhtml" style="display: flex; align-items: unsafe center; justify-content: unsafe flex-start; width: 1px; height: 1px; padding-top: 10000px; margin-left: 10000px;"><div style="box-sizing: border-box; font-size: 0; text-align: left; color: #000000; "><div style="display: inline-block; font-size: 18px; font-family: Helvetica; color: light-dark(#000000, #ededed); line-height: 1.2; pointer-events: all; white-space: nowrap; "><font>«artifact»<br />Micro XRCE-DDS</font></div></div></div></foreignObject></g></g><g style="visibility: visible;"><path d="M 826 260 L 1026 260 L 1026 330 L 826 330 L 826 315 L 810 315 L 810 303 L 826 303 L 826 287 L 810 287 L 810 275 L 826 275 Z" fill="none" stroke="white" stroke-width="9.5" stroke-miterlimit="10" pointer-events="stroke" style="stroke: light-dark(rgb(0, 0, 0), rgb(237, 237, 237));" visibility="hidden" vector-effect="non-scaling-stroke"/><path d="M 826 260 L 1026 260 L 1026 330 L 826 330 L 826 315 L 810 315 L 810 303 L 826 303 L 826 287 L 810 287 L 810 275 L 826 275 Z" fill="none" stroke="#000000" stroke-width="1.5" stroke-miterlimit="10" pointer-events="all" style="stroke: light-dark(rgb(0, 0, 0), rgb(237, 237, 237));"/><path d="M 826 275 L 842 275 L 842 287 L 826 287 M 826 303 L 842 303 L 842 315 L 826 315" fill="none" stroke="white" stroke-width="9.5" stroke-miterlimit="10" pointer-events="stroke" style="stroke: light-dark(rgb(0, 0, 0), rgb(237, 237, 237));" visibility="hidden" vector-effect="non-scaling-stroke"/><path d="M 826 275 L 842 275 L 842 287 L 826 287 M 826 303 L 842 303 L 842 315 L 826 315" fill="none" stroke="#000000" stroke-width="1.5" stroke-miterlimit="10" pointer-events="all" style="stroke: light-dark(rgb(0, 0, 0), rgb(237, 237, 237));"/></g><g style=""><g><foreignObject style="overflow: visible; text-align: left;" pointer-events="none" x="-9152" y="-9705" width="20176" height="20066"><div xmlns="http://www.w3.org/1999/xhtml" style="display: flex; align-items: unsafe center; justify-content: unsafe flex-start; width: 1px; height: 1px; padding-top: 10000px; margin-left: 10000px;"><div style="box-sizing: border-box; font-size: 0; text-align: left; color: #000000; "><div style="display: inline-block; font-size: 18px; font-family: Helvetica; color: light-dark(#000000, #ededed); line-height: 1.2; pointer-events: all; white-space: nowrap; "><font>«artifact»<br />rosbridge server</font></div></div></div></foreignObject></g></g><g style="visibility: visible;"><path d="M 126 370 L 792 370 L 792 450 L 126 450 L 126 432 L 110 432 L 110 420 L 126 420 L 126 400 L 110 400 L 110 388 L 126 388 Z" fill="none" stroke="white" stroke-width="9.5" stroke-miterlimit="10" pointer-events="stroke" style="stroke: light-dark(rgb(0, 0, 0), rgb(237, 237, 237));" visibility="hidden" vector-effect="non-scaling-stroke"/><path d="M 126 370 L 792 370 L 792 450 L 126 450 L 126 432 L 110 432 L 110 420 L 126 420 L 126 400 L 110 400 L 110 388 L 126 388 Z" fill="none" stroke="#000000" stroke-width="1.5" stroke-miterlimit="10" pointer-events="all" style="stroke: light-dark(rgb(0, 0, 0), rgb(237, 237, 237));"/><path d="M 126 388 L 142 388 L 142 400 L 126 400 M 126 420 L 142 420 L 142 432 L 126 432" fill="none" stroke="white" stroke-width="9.5" stroke-miterlimit="10" pointer-events="stroke" style="stroke: light-dark(rgb(0, 0, 0), rgb(237, 237, 237));" visibility="hidden" vector-effect="non-scaling-stroke"/><path d="M 126 388 L 142 388 L 142 400 L 126 400 M 126 420 L 142 420 L 142 432 L 126 432" fill="none" stroke="#000000" stroke-width="1.5" stroke-miterlimit="10" pointer-events="all" style="stroke: light-dark(rgb(0, 0, 0), rgb(237, 237, 237));"/></g><g style=""><g><foreignObject style="overflow: visible; text-align: left;" pointer-events="none" x="-9852" y="-9590" width="20642" height="20076"><div xmlns="http://www.w3.org/1999/xhtml" style="display: flex; align-items: unsafe center; justify-content: unsafe flex-start; width: 1px; height: 1px; padding-top: 10000px; margin-left: 10000px;"><div style="box-sizing: border-box; font-size: 0; text-align: left; color: #000000; "><div style="display: inline-block; font-size: 18px; font-family: Helvetica; color: light-dark(#000000, #ededed); line-height: 1.2; pointer-events: all; white-space: nowrap; "><font>«component»<br />ROS 2 Swarm Stack, ThreatAssessment, MissionRules, AttackManager</font></div></div></div></foreignObject></g></g><g style="visibility: visible;"><path d="M 826 370 L 1026 370 L 1026 450 L 826 450 L 826 432 L 810 432 L 810 420 L 826 420 L 826 400 L 810 400 L 810 388 L 826 388 Z" fill="none" stroke="white" stroke-width="9.5" stroke-miterlimit="10" pointer-events="stroke" style="stroke: light-dark(rgb(0, 0, 0), rgb(237, 237, 237));" visibility="hidden" vector-effect="non-scaling-stroke"/><path d="M 826 370 L 1026 370 L 1026 450 L 826 450 L 826 432 L 810 432 L 810 420 L 826 420 L 826 400 L 810 400 L 810 388 L 826 388 Z" fill="none" stroke="#000000" stroke-width="1.5" stroke-miterlimit="10" pointer-events="all" style="stroke: light-dark(rgb(0, 0, 0), rgb(237, 237, 237));"/><path d="M 826 388 L 842 388 L 842 400 L 826 400 M 826 420 L 842 420 L 842 432 L 826 432" fill="none" stroke="white" stroke-width="9.5" stroke-miterlimit="10" pointer-events="stroke" style="stroke: light-dark(rgb(0, 0, 0), rgb(237, 237, 237));" visibility="hidden" vector-effect="non-scaling-stroke"/><path d="M 826 388 L 842 388 L 842 400 L 826 400 M 826 420 L 842 420 L 842 432 L 826 432" fill="none" stroke="#000000" stroke-width="1.5" stroke-miterlimit="10" pointer-events="all" style="stroke: light-dark(rgb(0, 0, 0), rgb(237, 237, 237));"/></g><g style=""><g><foreignObject style="overflow: visible; text-align: left;" pointer-events="none" x="-9152" y="-9590" width="20176" height="20076"><div xmlns="http://www.w3.org/1999/xhtml" style="display: flex; align-items: unsafe center; justify-content: unsafe flex-start; width: 1px; height: 1px; padding-top: 10000px; margin-left: 10000px;"><div style="box-sizing: border-box; font-size: 0; text-align: left; color: #000000; "><div style="display: inline-block; font-size: 18px; font-family: Helvetica; color: light-dark(#000000, #ededed); line-height: 1.2; pointer-events: all; white-space: nowrap; "><font>«component»<br />telemetry_logger</font></div></div></div></foreignObject></g></g><g style="visibility: visible;"><path d="M 656 501 C 656 519 1026 519 1026 501" fill="none" stroke="white" stroke-width="9.5" stroke-miterlimit="10" pointer-events="stroke" style="stroke: light-dark(rgb(0, 0, 0), rgb(237, 237, 237));" visibility="hidden" vector-effect="non-scaling-stroke"/><path d="M 656 501 C 656 519 1026 519 1026 501" fill="none" stroke="#000000" stroke-width="1.5" stroke-miterlimit="10" pointer-events="all" style="stroke: light-dark(rgb(0, 0, 0), rgb(237, 237, 237));"/><path d="M 656 501 C 656 477 1026 477 1026 501 L 1026 555 C 1026 579 656 579 656 555 Z" fill="none" stroke="white" stroke-width="9.5" stroke-miterlimit="10" pointer-events="stroke" style="stroke: light-dark(rgb(0, 0, 0), rgb(237, 237, 237));" visibility="hidden" vector-effect="non-scaling-stroke"/><path d="M 656 501 C 656 477 1026 477 1026 501 L 1026 555 C 1026 579 656 579 656 555 Z" fill="none" stroke="#000000" stroke-width="1.5" stroke-miterlimit="10" pointer-events="all" style="stroke: light-dark(rgb(0, 0, 0), rgb(237, 237, 237));"/></g><g style=""><g><foreignObject style="overflow: visible; text-align: left;" pointer-events="none" x="-9343" y="-9458" width="20366" height="20059"><div xmlns="http://www.w3.org/1999/xhtml" style="display: flex; align-items: unsafe center; justify-content: unsafe center; width: 368px; height: 1px; padding-top: 10000px; margin-left: 10000px;"><div style="box-sizing: border-box; font-size: 0; text-align: center; color: #000000; "><div style="display: inline-block; font-size: 18px; font-family: Helvetica; color: light-dark(#000000, #ededed); line-height: 1.2; pointer-events: all; white-space: normal; word-wrap: normal; "><font>«artifact»<br />telemetry.db</font></div></div></div></foreignObject></g></g><g style="visibility: visible;"><path d="M 96 700 L 360 700 L 360 780 L 96 780 L 96 762 L 80 762 L 80 750 L 96 750 L 96 730 L 80 730 L 80 718 L 96 718 Z" fill="none" stroke="white" stroke-width="9.5" stroke-miterlimit="10" pointer-events="stroke" style="stroke: light-dark(rgb(0, 0, 0), rgb(237, 237, 237));" visibility="hidden" vector-effect="non-scaling-stroke"/><path d="M 96 700 L 360 700 L 360 780 L 96 780 L 96 762 L 80 762 L 80 750 L 96 750 L 96 730 L 80 730 L 80 718 L 96 718 Z" fill="none" stroke="#000000" stroke-width="1.5" stroke-miterlimit="10" pointer-events="all" style="stroke: light-dark(rgb(0, 0, 0), rgb(237, 237, 237));"/><path d="M 96 718 L 112 718 L 112 730 L 96 730 M 96 750 L 112 750 L 112 762 L 96 762" fill="none" stroke="white" stroke-width="9.5" stroke-miterlimit="10" pointer-events="stroke" style="stroke: light-dark(rgb(0, 0, 0), rgb(237, 237, 237));" visibility="hidden" vector-effect="non-scaling-stroke"/><path d="M 96 718 L 112 718 L 112 730 L 96 730 M 96 750 L 112 750 L 112 762 L 96 762" fill="none" stroke="#000000" stroke-width="1.5" stroke-miterlimit="10" pointer-events="all" style="stroke: light-dark(rgb(0, 0, 0), rgb(237, 237, 237));"/></g><g style=""><g><foreignObject style="overflow: visible; text-align: left;" pointer-events="none" x="-9882" y="-9260" width="20240" height="20076"><div xmlns="http://www.w3.org/1999/xhtml" style="display: flex; align-items: unsafe center; justify-content: unsafe flex-start; width: 1px; height: 1px; padding-top: 10000px; margin-left: 10000px;"><div style="box-sizing: border-box; font-size: 0; text-align: left; color: #000000; "><div style="display: inline-block; font-size: 18px; font-family: Helvetica; color: light-dark(#000000, #ededed); line-height: 1.2; pointer-events: all; white-space: nowrap; "><font>«artifact»<br />Backend API Gateway<br />FastAPI</font></div></div></div></foreignObject></g></g><g style="visibility: visible;"><path d="M 416 700 L 660 700 L 660 780 L 416 780 L 416 762 L 400 762 L 400 750 L 416 750 L 416 730 L 400 730 L 400 718 L 416 718 Z" fill="none" stroke="white" stroke-width="9.5" stroke-miterlimit="10" pointer-events="stroke" style="stroke: light-dark(rgb(0, 0, 0), rgb(237, 237, 237));" visibility="hidden" vector-effect="non-scaling-stroke"/><path d="M 416 700 L 660 700 L 660 780 L 416 780 L 416 762 L 400 762 L 400 750 L 416 750 L 416 730 L 400 730 L 400 718 L 416 718 Z" fill="none" stroke="#000000" stroke-width="1.5" stroke-miterlimit="10" pointer-events="all" style="stroke: light-dark(rgb(0, 0, 0), rgb(237, 237, 237));"/><path d="M 416 718 L 432 718 L 432 730 L 416 730 M 416 750 L 432 750 L 432 762 L 416 762" fill="none" stroke="white" stroke-width="9.5" stroke-miterlimit="10" pointer-events="stroke" style="stroke: light-dark(rgb(0, 0, 0), rgb(237, 237, 237));" visibility="hidden" vector-effect="non-scaling-stroke"/><path d="M 416 718 L 432 718 L 432 730 L 416 730 M 416 750 L 432 750 L 432 762 L 416 762" fill="none" stroke="#000000" stroke-width="1.5" stroke-miterlimit="10" pointer-events="all" style="stroke: light-dark(rgb(0, 0, 0), rgb(237, 237, 237));"/></g><g style=""><g><foreignObject style="overflow: visible; text-align: left;" pointer-events="none" x="-9562" y="-9260" width="20220" height="20076"><div xmlns="http://www.w3.org/1999/xhtml" style="display: flex; align-items: unsafe center; justify-content: unsafe flex-start; width: 1px; height: 1px; padding-top: 10000px; margin-left: 10000px;"><div style="box-sizing: border-box; font-size: 0; text-align: left; color: #000000; "><div style="display: inline-block; font-size: 18px; font-family: Helvetica; color: light-dark(#000000, #ededed); line-height: 1.2; pointer-events: all; white-space: nowrap; "><font>«artifact»<br />Frontend Server<br />Vite</font></div></div></div></foreignObject></g></g><g style="visibility: visible;"><path d="M 700 716 C 700 732 1050 732 1050 716" fill="none" stroke="white" stroke-width="9.5" stroke-miterlimit="10" pointer-events="stroke" style="stroke: light-dark(rgb(0, 0, 0), rgb(237, 237, 237));" visibility="hidden" vector-effect="non-scaling-stroke"/><path d="M 700 716 C 700 732 1050 732 1050 716" fill="none" stroke="#000000" stroke-width="1.5" stroke-miterlimit="10" pointer-events="all" style="stroke: light-dark(rgb(0, 0, 0), rgb(237, 237, 237));"/><path d="M 700 716 C 700 694.67 1050 694.67 1050 716 L 1050 764 C 1050 785.33 700 785.33 700 764 Z" fill="none" stroke="white" stroke-width="9.5" stroke-miterlimit="10" pointer-events="stroke" style="stroke: light-dark(rgb(0, 0, 0), rgb(237, 237, 237));" visibility="hidden" vector-effect="non-scaling-stroke"/><path d="M 700 716 C 700 694.67 1050 694.67 1050 716 L 1050 764 C 1050 785.33 700 785.33 700 764 Z" fill="none" stroke="#000000" stroke-width="1.5" stroke-miterlimit="10" pointer-events="all" style="stroke: light-dark(rgb(0, 0, 0), rgb(237, 237, 237));"/></g><g style=""><g><foreignObject style="overflow: visible; text-align: left;" pointer-events="none" x="-9299" y="-9248" width="20346" height="20052"><div xmlns="http://www.w3.org/1999/xhtml" style="display: flex; align-items: unsafe center; justify-content: unsafe center; width: 348px; height: 1px; padding-top: 10000px; margin-left: 10000px;"><div style="box-sizing: border-box; font-size: 0; text-align: center; color: #000000; "><div style="display: inline-block; font-size: 18px; font-family: Helvetica; color: light-dark(#000000, #ededed); line-height: 1.2; pointer-events: all; white-space: normal; word-wrap: normal; ">«artifact»<br /><b>Telemetry Database File</b></div></div></div></foreignObject></g></g><g style="visibility: visible;"><path d="M 841 573 L 842.45 699.84" fill="none" stroke="white" stroke-width="10" stroke-miterlimit="10" pointer-events="stroke" style="stroke: light-dark(rgb(0, 0, 0), rgb(237, 237, 237));" visibility="hidden" vector-effect="non-scaling-stroke"/><path d="M 841 573 L 842.45 699.84" fill="none" stroke="#000000" stroke-width="2" stroke-miterlimit="10" stroke-dasharray="6 6" pointer-events="stroke" style="stroke: light-dark(rgb(0, 0, 0), rgb(237, 237, 237));"/></g><g style=""><g fill="#000000" font-family="Helvetica" font-weight="bold" text-anchor="start" font-size="18px" style="fill: light-dark(rgb(0, 0, 0), rgb(237, 237, 237));"><text x="853.72" y="623">«bind mount volume»</text></g></g><g style="visibility: visible;"><path d="M 1308 13 L 1728 13 L 1748 33 L 1748 373 L 1328 373 L 1308 353 L 1308 13 Z" fill="none" stroke="white" stroke-width="10" stroke-miterlimit="10" pointer-events="stroke" style="stroke: light-dark(rgb(0, 0, 0), rgb(237, 237, 237));" visibility="hidden" vector-effect="non-scaling-stroke"/><path d="M 1308 13 L 1728 13 L 1748 33 L 1748 373 L 1328 373 L 1308 353 L 1308 13 Z" fill="none" stroke="#000000" stroke-width="2" stroke-miterlimit="10" pointer-events="all" style="stroke: light-dark(rgb(0, 0, 0), rgb(237, 237, 237));"/><path d="M 1308 13 L 1728 13 L 1748 33 L 1328 33 Z" fill-opacity="0.05" fill="#000000" stroke="none" pointer-events="all" style="fill: light-dark(rgb(0, 0, 0), rgb(237, 237, 237));"/><path d="M 1308 13 L 1328 33 L 1328 373 L 1308 353 Z" fill-opacity="0.1" fill="#000000" stroke="none" pointer-events="all" style="fill: light-dark(rgb(0, 0, 0), rgb(237, 237, 237));"/><path d="M 1328 373 L 1328 33 L 1308 13 M 1328 33 L 1748 33" fill="none" stroke="white" stroke-width="10" stroke-miterlimit="10" pointer-events="stroke" style="stroke: light-dark(rgb(0, 0, 0), rgb(237, 237, 237));" visibility="hidden" vector-effect="non-scaling-stroke"/><path d="M 1328 373 L 1328 33 L 1308 13 M 1328 33 L 1748 33" fill="none" stroke="#000000" stroke-width="2" stroke-miterlimit="10" pointer-events="all" style="stroke: light-dark(rgb(0, 0, 0), rgb(237, 237, 237));"/></g><g style=""><g><foreignObject style="overflow: visible; text-align: left;" pointer-events="none" x="-8645" y="-9945" width="20391" height="20321"><div xmlns="http://www.w3.org/1999/xhtml" style="display: flex; align-items: unsafe flex-start; justify-content: unsafe flex-start; width: 393px; height: 1px; padding-top: 10000px; margin-left: 10000px;"><div style="box-sizing: border-box; font-size: 0; text-align: left; color: #000000; "><div style="display: inline-block; font-size: 18px; font-family: Helvetica; color: light-dark(#000000, #ededed); line-height: 1.2; pointer-events: all; font-weight: bold; white-space: normal; word-wrap: normal; "><font>«device»<br /><b>Developer Workstation</b><br />Client Machine</font></div></div></div></foreignObject></g></g><g style="visibility: visible;"><path d="M 1365 240 L 1729 240 L 1729 330 L 1365 330 L 1365 309 L 1349 309 L 1349 297 L 1365 297 L 1365 273 L 1349 273 L 1349 261 L 1365 261 Z" fill="none" stroke="white" stroke-width="9.5" stroke-miterlimit="10" pointer-events="stroke" style="stroke: light-dark(rgb(0, 0, 0), rgb(237, 237, 237));" visibility="hidden" vector-effect="non-scaling-stroke"/><path d="M 1365 240 L 1729 240 L 1729 330 L 1365 330 L 1365 309 L 1349 309 L 1349 297 L 1365 297 L 1365 273 L 1349 273 L 1349 261 L 1365 261 Z" fill="none" stroke="#000000" stroke-width="1.5" stroke-miterlimit="10" pointer-events="all" style="stroke: light-dark(rgb(0, 0, 0), rgb(237, 237, 237));"/><path d="M 1365 261 L 1381 261 L 1381 273 L 1365 273 M 1365 297 L 1381 297 L 1381 309 L 1365 309" fill="none" stroke="white" stroke-width="9.5" stroke-miterlimit="10" pointer-events="stroke" style="stroke: light-dark(rgb(0, 0, 0), rgb(237, 237, 237));" visibility="hidden" vector-effect="non-scaling-stroke"/><path d="M 1365 261 L 1381 261 L 1381 273 L 1365 273 M 1365 297 L 1381 297 L 1381 309 L 1365 309" fill="none" stroke="#000000" stroke-width="1.5" stroke-miterlimit="10" pointer-events="all" style="stroke: light-dark(rgb(0, 0, 0), rgb(237, 237, 237));"/></g><g style=""><g><foreignObject style="overflow: visible; text-align: left;" pointer-events="none" x="-8613" y="-9715" width="20340" height="20086"><div xmlns="http://www.w3.org/1999/xhtml" style="display: flex; align-items: unsafe center; justify-content: unsafe flex-start; width: 1px; height: 1px; padding-top: 10000px; margin-left: 10000px;"><div style="box-sizing: border-box; font-size: 0; text-align: left; color: #000000; "><div style="display: inline-block; font-size: 18px; font-family: Helvetica; color: light-dark(#000000, #ededed); line-height: 1.2; pointer-events: all; white-space: nowrap; "><font>«artifact»<br />Web Browser<br />GCS Web Client</font></div></div></div></foreignObject></g></g><g style="visibility: visible;"><path d="M 1307.12 128.92 L 1087 127.5" fill="none" stroke="white" stroke-width="10" stroke-miterlimit="10" pointer-events="stroke" style="stroke: light-dark(rgb(0, 0, 0), rgb(237, 237, 237));" visibility="hidden" vector-effect="non-scaling-stroke"/><path d="M 1307.12 128.92 L 1087 127.5" fill="none" stroke="#000000" stroke-width="2" stroke-miterlimit="10" pointer-events="stroke" style="stroke: light-dark(rgb(0, 0, 0), rgb(237, 237, 237));"/></g><g style=""><g fill="#000000" font-family="Helvetica" font-weight="bold" text-anchor="middle" font-size="18px" style="fill: light-dark(rgb(0, 0, 0), rgb(237, 237, 237));"><text x="1197.12" y="115.21">HTTP :5173</text></g></g><g style="visibility: visible;"><path d="M 1307.12 215.32 L 1087 213.35" fill="none" stroke="white" stroke-width="10" stroke-miterlimit="10" pointer-events="stroke" style="stroke: light-dark(rgb(0, 0, 0), rgb(237, 237, 237));" visibility="hidden" vector-effect="non-scaling-stroke"/><path d="M 1307.12 215.32 L 1087 213.35" fill="none" stroke="#000000" stroke-width="2" stroke-miterlimit="10" pointer-events="stroke" style="stroke: light-dark(rgb(0, 0, 0), rgb(237, 237, 237));"/></g><g style=""><g fill="#000000" font-family="Helvetica" font-weight="bold" text-anchor="middle" font-size="18px" style="fill: light-dark(rgb(0, 0, 0), rgb(237, 237, 237));"><text x="1197.12" y="201.34">HTTP :8000</text></g></g><g style="visibility: visible;"><path d="M 1308 283 L 1084.9 282.2" fill="none" stroke="white" stroke-width="10" stroke-miterlimit="10" pointer-events="stroke" style="stroke: light-dark(rgb(0, 0, 0), rgb(237, 237, 237));" visibility="hidden" vector-effect="non-scaling-stroke"/><path d="M 1308 283 L 1084.9 282.2" fill="none" stroke="#000000" stroke-width="2" stroke-miterlimit="10" pointer-events="stroke" style="stroke: light-dark(rgb(0, 0, 0), rgb(237, 237, 237));"/></g><g style=""><g fill="#000000" font-family="Helvetica" font-weight="bold" text-anchor="middle" font-size="18px" style="fill: light-dark(rgb(0, 0, 0), rgb(237, 237, 237));"><text x="1196" y="269.6">WebSocket :9090</text></g></g><g style="visibility: visible;"><path d="M 1316 550 L 1736 550 L 1756 570 L 1756 830 L 1336 830 L 1316 810 L 1316 550 Z" fill="none" stroke="white" stroke-width="10" stroke-miterlimit="10" pointer-events="stroke" style="stroke: light-dark(rgb(0, 0, 0), rgb(237, 237, 237));" visibility="hidden" vector-effect="non-scaling-stroke"/><path d="M 1316 550 L 1736 550 L 1756 570 L 1756 830 L 1336 830 L 1316 810 L 1316 550 Z" fill="none" stroke="#000000" stroke-width="2" stroke-miterlimit="10" pointer-events="all" style="stroke: light-dark(rgb(0, 0, 0), rgb(237, 237, 237));"/><path d="M 1316 550 L 1736 550 L 1756 570 L 1336 570 Z" fill-opacity="0.05" fill="#000000" stroke="none" pointer-events="all" style="fill: light-dark(rgb(0, 0, 0), rgb(237, 237, 237));"/><path d="M 1316 550 L 1336 570 L 1336 830 L 1316 810 Z" fill-opacity="0.1" fill="#000000" stroke="none" pointer-events="all" style="fill: light-dark(rgb(0, 0, 0), rgb(237, 237, 237));"/><path d="M 1336 830 L 1336 570 L 1316 550 M 1336 570 L 1756 570" fill="none" stroke="white" stroke-width="10" stroke-miterlimit="10" pointer-events="stroke" style="stroke: light-dark(rgb(0, 0, 0), rgb(237, 237, 237));" visibility="hidden" vector-effect="non-scaling-stroke"/><path d="M 1336 830 L 1336 570 L 1316 550 M 1336 570 L 1756 570" fill="none" stroke="#000000" stroke-width="2" stroke-miterlimit="10" pointer-events="all" style="stroke: light-dark(rgb(0, 0, 0), rgb(237, 237, 237));"/></g><g style=""><g><foreignObject style="overflow: visible; text-align: left;" pointer-events="none" x="-8637" y="-9408" width="20391" height="20241"><div xmlns="http://www.w3.org/1999/xhtml" style="display: flex; align-items: unsafe flex-start; justify-content: unsafe flex-start; width: 393px; height: 1px; padding-top: 10000px; margin-left: 10000px;"><div style="box-sizing: border-box; font-size: 0; text-align: left; color: #000000; "><div style="display: inline-block; font-size: 18px; font-family: Helvetica; color: light-dark(#000000, #ededed); line-height: 1.2; pointer-events: all; font-weight: bold; white-space: normal; word-wrap: normal; ">«device»<br /><b>Cloud Server</b><br />Ubuntu Linux</div></div></div></foreignObject></g></g><g style="visibility: visible;"><path d="M 1372 680 L 1716 680 L 1716 760 L 1372 760 L 1372 742 L 1356 742 L 1356 730 L 1372 730 L 1372 710 L 1356 710 L 1356 698 L 1372 698 Z" fill="none" stroke="white" stroke-width="9.5" stroke-miterlimit="10" pointer-events="stroke" style="stroke: light-dark(rgb(0, 0, 0), rgb(237, 237, 237));" visibility="hidden" vector-effect="non-scaling-stroke"/><path d="M 1372 680 L 1716 680 L 1716 760 L 1372 760 L 1372 742 L 1356 742 L 1356 730 L 1372 730 L 1372 710 L 1356 710 L 1356 698 L 1372 698 Z" fill="none" stroke="#000000" stroke-width="1.5" stroke-miterlimit="10" pointer-events="all" style="stroke: light-dark(rgb(0, 0, 0), rgb(237, 237, 237));"/><path d="M 1372 698 L 1388 698 L 1388 710 L 1372 710 M 1372 730 L 1388 730 L 1388 742 L 1372 742" fill="none" stroke="white" stroke-width="9.5" stroke-miterlimit="10" pointer-events="stroke" style="stroke: light-dark(rgb(0, 0, 0), rgb(237, 237, 237));" visibility="hidden" vector-effect="non-scaling-stroke"/><path d="M 1372 698 L 1388 698 L 1388 710 L 1372 710 M 1372 730 L 1388 730 L 1388 742 L 1372 742" fill="none" stroke="#000000" stroke-width="1.5" stroke-miterlimit="10" pointer-events="all" style="stroke: light-dark(rgb(0, 0, 0), rgb(237, 237, 237));"/></g><g style=""><g><foreignObject style="overflow: visible; text-align: left;" pointer-events="none" x="-8606" y="-9280" width="20320" height="20076"><div xmlns="http://www.w3.org/1999/xhtml" style="display: flex; align-items: unsafe center; justify-content: unsafe flex-start; width: 1px; height: 1px; padding-top: 10000px; margin-left: 10000px;"><div style="box-sizing: border-box; font-size: 0; text-align: left; color: #000000; "><div style="display: inline-block; font-size: 18px; font-family: Helvetica; color: light-dark(#000000, #ededed); line-height: 1.2; pointer-events: all; white-space: nowrap; "><font>«artifact»<br />Headless Duel Runner</font></div></div></div></foreignObject></g></g><g style="visibility: visible;"><path d="M 1092.25 691.05 L 1312.65 690.02" fill="none" stroke="white" stroke-width="9.5" stroke-miterlimit="10" pointer-events="stroke" style="stroke: light-dark(rgb(0, 0, 0), rgb(237, 237, 237));" visibility="hidden" vector-effect="non-scaling-stroke"/><path d="M 1092.25 691.05 L 1312.65 690.02" fill="none" stroke="#000000" stroke-width="1.5" stroke-miterlimit="10" stroke-dasharray="4.5 4.5" pointer-events="stroke" style="stroke: light-dark(rgb(0, 0, 0), rgb(237, 237, 237));"/><path d="M 1306.84 693.79 L 1314.32 690.01 L 1306.81 686.29" fill="none" stroke="white" stroke-width="9.5" stroke-miterlimit="10" pointer-events="stroke" style="stroke: light-dark(rgb(0, 0, 0), rgb(237, 237, 237));" visibility="hidden" vector-effect="non-scaling-stroke"/><path d="M 1306.84 693.79 L 1314.32 690.01 L 1306.81 686.29" fill="none" stroke="#000000" stroke-width="1.5" stroke-miterlimit="10" pointer-events="all" style="stroke: light-dark(rgb(0, 0, 0), rgb(237, 237, 237));"/></g><g style=""><g fill="#000000" font-family="Helvetica" font-weight="bold" text-anchor="middle" font-size="18px" style="fill: light-dark(rgb(0, 0, 0), rgb(237, 237, 237));"><text x="1204.25" y="677.52">Docker / CI-CD</text></g></g></g><g/><g/></g></svg>